<svg width="79" height="29" viewBox="0 0 79 29" fill="none" xmlns="http://www.w3.org/2000/svg">
<path d="M5.67239 29V5.8H24.0671V0H0V29H5.67239Z" fill="#F1F1F1"/>
<path d="M30.5508 14.5414V11.6414L36.1827 5.8H44.6912V14.5414H30.5508ZM30.5508 29V20.3414H44.6912V29H50.3231V0H33.3465L24.8784 8.74143V29H30.5508Z" fill="#F1F1F1"/>
<path d="M76.2043 29L79 26.1414V17.4414L76.2043 14.5414L79 11.6414V2.94143L76.2043 0H56.351L53.5553 2.94143V8.7H59.2277V5.8H73.3681V11.6414H64.8595V17.4414H73.3681V23.2H59.2277V20.3414H53.5553V26.1414L56.351 29H76.2043Z" fill="#F1F1F1"/>
</svg>
