<svg width="141" height="29" viewBox="0 0 141 29" fill="none" xmlns="http://www.w3.org/2000/svg">
<path d="M5.70637 14.5414V11.6414L11.372 5.8H19.9316V14.5414H5.70637ZM5.70637 29V20.3414H19.9316V29H25.5972V0H8.5188L0 8.74143V29H5.70637Z" fill="#F1F1F1"/>
<path d="M44.1336 29V5.8H54.0383V0H28.4411V5.8H38.4273V29H44.1336Z" fill="#F1F1F1"/>
<path d="M62.189 29V11.6L67.8546 5.8H76.4142V29H82.0798V0H65.0014L56.4826 8.7V29H62.189Z" fill="#F1F1F1"/>
<path d="M91.4453 14.5414V11.6414L97.1109 5.8H105.67V14.5414H91.4453ZM91.4453 29V20.3414H105.67V29H111.336V0H94.2577L85.7389 8.74143V29H91.4453Z" fill="#F1F1F1"/>
<path d="M121.109 29V17.4414H135.334V29H141V0H135.334V11.6414H121.109V0H115.403V29H121.109Z" fill="#F1F1F1"/>
</svg>
